<?xml version="1.0" encoding="utf-8"?>
<!-- Generator: Adobe Illustrator 22.1.0, SVG Export Plug-In . SVG Version: 6.00 Build 0)  -->
<svg version="1.1" xmlns="http://www.w3.org/2000/svg" xmlns:xlink="http://www.w3.org/1999/xlink" x="0px" y="0px"
	 viewBox="0 0 42 42" style="enable-background:new 0 0 42 42;" xml:space="preserve">
<style type="text/css">
	.st0{fill:url(#SVGID_1_);}
	.st1{fill:url(#SVGID_2_);stroke:#FFFFFF;stroke-width:2;stroke-miterlimit:10;}
</style>
<g id="Layer_1">
	<radialGradient id="SVGID_1_" cx="21" cy="21" r="19.6586" gradientUnits="userSpaceOnUse">
		<stop  offset="0" style="stop-color:#002B3A"/>
		<stop  offset="1" style="stop-color:#051A35"/>
	</radialGradient>
	<circle class="st0" cx="21" cy="21" r="19.7"/>
</g>
<g id="Layer_3">
</g>
<g id="Layer_2">
	<g>
		
			<radialGradient id="SVGID_2_" cx="18.9967" cy="21.0217" r="13.4885" gradientTransform="matrix(-4.019704e-02 -0.9992 0.9992 -4.019704e-02 0.8393 42.8062)" gradientUnits="userSpaceOnUse">
			<stop  offset="0" style="stop-color:#002B3A"/>
			<stop  offset="1" style="stop-color:#051A35"/>
		</radialGradient>
		<path class="st1" d="M26.3,14.2c-1.9,0.1-4,13.8-5.3,12.5c-1.1,1.3-2.4-12.2-4.3-12.1c-2.6,0.1-5-1.4-6.1-3.6
			C8,13.6,6.4,17.4,6.6,21.4c0.2,7.7,6.7,14,14.4,14c8.3,0,14.9-6.8,14.5-15c-0.1-3.6-1.6-6.8-3.9-9.3
			C30.4,12.9,28.5,14.1,26.3,14.2z"/>
	</g>
</g>
</svg>
