<?xml version="1.0" standalone="no"?>
<!DOCTYPE svg PUBLIC "-//W3C//DTD SVG 20010904//EN"
 "http://www.w3.org/TR/2001/REC-SVG-20010904/DTD/svg10.dtd">
<svg version="1.0" xmlns="http://www.w3.org/2000/svg"
 width="1000.000000pt" height="1000.000000pt" viewBox="0 0 1000.000000 1000.000000"
 preserveAspectRatio="xMidYMid meet">
<metadata>
Created by potrace 1.11, written by Peter Selinger 2001-2013
</metadata>
<g transform="translate(0.000000,1000.000000) scale(0.100000,-0.100000)"
fill="#000000" stroke="none">
<path d="M4660 9679 c-887 -62 -1758 -387 -2465 -919 -209 -157 -318 -253
-510 -445 -387 -386 -659 -767 -901 -1258 -681 -1385 -626 -3051 147 -4393
209 -364 446 -671 754 -979 386 -387 767 -659 1258 -901 1287 -633 2827 -633
4114 0 491 242 872 514 1258 901 387 386 659 767 901 1258 633 1287 633 2827
0 4114 -242 491 -514 872 -901 1258 -192 192 -301 288 -510 445 -640 481
-1415 794 -2215 894 -278 35 -650 45 -930 25z m-1971 -2096 c62 -122 126 -231
165 -284 162 -214 403 -387 659 -473 116 -38 233 -57 406 -65 144 -7 161 -10
214 -36 85 -42 179 -146 243 -271 144 -277 241 -621 469 -1669 81 -369 157
-693 173 -735 l10 -25 12 30 c40 98 142 432 290 952 235 820 334 1126 445
1373 83 185 145 280 238 367 82 77 142 100 290 114 332 31 615 171 857 425 63
67 133 156 209 269 63 94 117 173 120 177 4 5 63 -54 133 -130 336 -367 507
-607 688 -967 287 -570 411 -1169 379 -1837 -71 -1494 -1065 -2793 -2501
-3272 -624 -208 -1291 -248 -1923 -115 -934 196 -1764 756 -2304 1554 -336
497 -533 1027 -608 1635 -25 207 -25 702 1 885 96 695 358 1304 784 1824 70
86 437 471 448 471 2 0 48 -89 103 -197z"/>
<path d="M2427 6908 c-306 -408 -508 -888 -589 -1401 -20 -127 -23 -178 -22
-472 0 -361 11 -472 73 -745 102 -444 325 -899 626 -1275 107 -134 364 -391
500 -499 750 -596 1683 -827 2615 -645 786 152 1483 588 1960 1224 484 646
695 1430 609 2265 -57 553 -275 1100 -619 1557 l-47 62 -19 -21 c-52 -58 -231
-208 -323 -270 -226 -151 -485 -253 -736 -288 -44 -6 -93 -13 -110 -16 -43 -6
-95 -92 -176 -296 -100 -251 -166 -461 -375 -1193 -312 -1094 -409 -1337 -581
-1456 -88 -61 -255 -75 -361 -29 -68 29 -142 110 -186 203 -77 162 -131 370
-311 1182 -177 800 -263 1127 -361 1357 -54 130 -48 125 -199 138 -252 21
-448 75 -670 184 -217 107 -409 253 -556 422 -40 46 -76 84 -80 84 -4 0 -32
-33 -62 -72z"/>
</g>
</svg>
